<?xml version="1.0" encoding="utf-8"?>
<svg xmlns="http://www.w3.org/2000/svg" viewBox="0 0 500 500">
  <g id="executor-mark" transform="matrix(1, 0, 0, 1, -225.806, 50.179)">
    <path d="M 627.406 272.172 C 627.406 272.172 636.198 283.618 636.198 288.951 C 636.198 294.284 633.865 298.284 629.198 300.951 L 467.698 394.201 C 463.032 396.868 458.365 396.868 453.698 394.201 L 291.948 300.951 C 287.282 298.284 284.948 294.284 284.948 288.951 L 284.948 96.951 C 284.948 91.618 287.282 87.618 291.948 84.951 L 454.698 -8.299 C 459.365 -10.966 463.919 -10.966 468.698 -8.299" fill="none" stroke-width="36" stroke-linecap="round" stroke-linejoin="round" style="stroke-width: 36px;"/>
    <path d="M 623.092 253.589 C 623.092 248.755 627.761 250.142 632.819 252.362 C 637.877 254.582 640.785 255.985 645.52 259.073 C 645.52 259.073 653.341 263.305 653.698 270.382 C 654.055 277.459 654.197 283.542 654.197 288.95 C 654.197 291.374 653.755 294.349 653.009 297.239 C 652.263 300.129 651.212 302.934 649.995 305.019 C 648.781 307.1 646.851 309.322 644.714 311.352 C 642.577 313.383 640.235 315.222 638.197 316.538 L 557.413 363.183 L 476.629 409.828 C 474.466 410.915 471.684 412.008 468.843 412.829 C 466.002 413.651 463.1 414.201 460.697 414.201 C 458.294 414.201 455.378 413.643 452.522 412.813 C 449.666 411.983 446.87 410.882 444.706 409.795 L 363.86 363.186 L 283.014 316.577 C 280.977 315.262 278.617 313.413 276.464 311.372 C 274.31 309.331 272.363 307.1 271.149 305.02 C 269.933 302.935 268.949 300.13 268.236 297.24 C 267.523 294.35 267.08 291.375 266.946 288.95 L 266.946 192.95 L 266.946 96.95 C 267.081 94.525 267.523 91.55 268.236 88.66 C 268.949 85.77 269.932 82.965 271.149 80.88 C 272.363 78.8 274.306 76.57 276.456 74.532 C 278.606 72.494 280.961 70.647 282.998 69.332 L 364.382 22.702 L 445.766 -23.928 C 447.915 -25.01 450.682 -26.103 453.515 -26.926 C 456.348 -27.748 459.245 -28.3 461.655 -28.3 C 464.051 -28.3 465.811 -27.8 466.973 -27.3 C 468.134 -26.8 468.697 -26.3 468.697 -26.3 C 469.933 -26.127 469.933 -26.127 469.624 -26.17 C 469.315 -26.213 468.697 -26.3 468.697 -26.3 C 473.668 -23.911 478.168 -21.896 481.425 -19.236 C 484.682 -16.576 486.697 -13.271 486.697 -8.3 C 486.697 -3.33 484.682 1.17 481.425 4.428 C 478.168 7.685 473.668 9.7 468.697 9.7 C 468.697 9.7 468.079 9.613 467.77 9.57 C 467.461 9.527 467.461 9.527 468.697 9.7 C 468.697 9.7 466.898 9.2 465.118 8.7 C 463.338 8.2 461.578 7.7 461.655 7.7 C 461.745 7.7 462.331 7.481 462.848 7.326 C 463.365 7.17 463.813 7.077 463.628 7.328 L 382.262 53.948 L 300.896 100.568 C 300.6 100.587 300.914 100.24 301.314 99.868 C 301.714 99.496 302.199 99.1 302.245 99.02 C 302.295 98.934 302.403 98.296 302.533 97.74 C 302.662 97.183 302.813 96.709 302.947 96.95 L 302.947 192.95 L 302.947 288.95 C 302.812 289.192 302.662 288.717 302.533 288.16 C 302.404 287.604 302.295 286.965 302.245 286.88 C 302.198 286.799 301.709 286.401 301.305 286.027 C 300.901 285.653 300.583 285.304 300.879 285.323 L 381.783 331.964 L 462.687 378.605 C 462.858 378.852 462.395 378.751 461.872 378.587 C 461.349 378.424 460.767 378.199 460.697 378.199 C 460.627 378.199 460.059 378.415 459.551 378.57 C 459.043 378.725 458.594 378.818 458.764 378.571 C 458.764 378.571 498.821 355.607 538.867 332.664 C 578.913 309.721 618.855 286.432 618.808 286.513 C 618.758 286.599 621.072 284.899 622.579 282.448 C 623.448 279.906 623.235 276.25 623.235 276.25 C 623.194 270.815 623.092 258.423 623.092 253.589 Z" style="fill: rgb(248, 179, 30);"/>
    <path d="M 370.198 109.701 L 527.698 109.701 L 529.198 104.201 C 530.198 99.201 533.032 98.201 537.698 101.201 L 567.198 121.201 C 571.198 124.201 571.198 127.201 567.198 130.201 L 537.698 150.701 C 533.032 153.701 530.198 152.701 529.198 147.701 L 527.698 143.201 L 370.198 143.201 C 360.198 143.201 355.198 138.201 355.198 128.201 L 355.198 124.701 C 355.198 114.701 360.198 109.701 370.198 109.701 Z" style="stroke-width: 1px;"/>
    <path d="M 370.198 177.201 L 467.198 177.201 C 468.532 177.201 491.698 189.201 491.698 189.201 C 495.032 192.201 495.032 195.201 491.698 198.201 C 491.698 198.201 468.532 210.201 467.198 210.201 L 370.198 210.201 C 360.198 209.868 355.198 204.701 355.198 194.701 L 355.198 192.201 C 355.198 182.201 360.198 177.201 370.198 177.201 Z" style="stroke-width: 1px;"/>
    <path d="M 370.198 244.201 L 527.698 244.201 L 529.198 238.701 C 530.198 233.701 533.032 232.701 537.698 235.701 L 567.198 255.701 C 571.198 258.701 571.198 261.701 567.198 264.701 L 537.698 285.201 C 533.032 288.201 530.198 287.201 529.198 282.201 L 527.698 277.701 L 370.198 277.701 C 360.198 277.701 355.198 272.701 355.198 262.701 L 355.198 259.201 C 355.198 249.201 360.198 244.201 370.198 244.201 Z" style="stroke-width: 1px;"/>
  </g>
  <path d="M 321.435 105.531 C 330.926 106.945 357.617 90.62 350.936 86.772 C 344.255 82.924 310.155 63.564 310.155 63.564 L 289.959 51.902 L 269.763 40.24 L 249.567 28.578 C 249.026 28.307 248.447 28.034 247.837 27.766 C 247.227 27.498 246.588 27.233 245.927 26.978 C 245.267 26.722 244.585 26.475 243.891 26.24 C 243.197 26.005 242.49 25.783 241.78 25.577 C 241.069 25.371 240.355 25.183 239.646 25.016 C 238.937 24.849 238.233 24.703 237.543 24.583 C 236.852 24.463 236.176 24.369 235.521 24.304 C 234.867 24.24 234.235 24.205 233.634 24.205 C 233.034 24.205 232.401 24.24 231.745 24.305 C 231.089 24.37 230.41 24.466 229.716 24.588 C 229.023 24.71 228.316 24.857 227.603 25.026 C 226.891 25.195 226.173 25.385 225.459 25.593 C 224.745 25.801 224.035 26.025 223.337 26.262 C 222.639 26.499 221.954 26.748 221.291 27.006 C 220.627 27.264 219.986 27.529 219.375 27.798 C 218.764 28.067 218.183 28.34 217.642 28.611 L 200.796 36.433 L 180.584 48.085 L 160.372 59.737 L 140.16 71.389 L 119.949 83.042 L 99.738 94.695 L 79.527 106.348 L 59.316 118.001 C 58.807 118.33 58.278 118.692 57.736 119.082 C 57.195 119.472 56.641 119.89 56.085 120.331 C 55.528 120.772 54.968 121.235 54.412 121.716 C 53.856 122.197 53.305 122.695 52.766 123.206 C 52.228 123.716 51.702 124.238 51.198 124.767 C 50.694 125.295 50.21 125.83 49.756 126.367 C 49.302 126.904 48.877 127.441 48.491 127.975 C 48.104 128.509 47.755 129.038 47.451 129.558 C 47.147 130.079 46.857 130.645 46.583 131.247 C 46.309 131.848 46.049 132.485 45.806 133.146 C 45.563 133.807 45.335 134.494 45.123 135.196 C 44.911 135.898 44.716 136.615 44.538 137.338 C 44.36 138.061 44.199 138.788 44.055 139.511 C 43.911 140.234 43.785 140.953 43.676 141.657 C 43.568 142.361 43.477 143.051 43.406 143.716 C 43.334 144.381 43.282 145.022 43.248 145.628 L 43.248 169.628 L 43.248 193.628 L 43.248 217.628 L 43.248 241.628 L 43.373 265.412 L 43.498 289.196 L 42.757 312.479 L 42.882 336.262 C 42.916 336.868 42.969 337.509 43.04 338.174 C 43.112 338.839 43.202 339.529 43.31 340.233 C 43.418 340.937 43.544 341.655 43.688 342.379 C 43.832 343.102 43.993 343.83 44.172 344.552 C 44.351 345.275 44.546 345.992 44.757 346.694 C 44.969 347.396 45.196 348.083 45.44 348.744 C 45.683 349.405 45.943 350.042 46.217 350.643 C 46.491 351.244 46.781 351.811 47.086 352.332 C 47.389 352.852 47.738 353.381 48.125 353.915 C 48.511 354.448 48.935 354.986 49.388 355.522 C 49.841 356.058 50.323 356.593 50.827 357.121 C 51.33 357.649 51.855 358.171 52.392 358.68 C 52.93 359.19 53.48 359.687 54.035 360.167 C 54.59 360.647 55.149 361.11 55.705 361.551 C 56.261 361.992 56.813 362.409 57.354 362.799 C 57.895 363.189 58.424 363.551 58.934 363.88 L 79.279 375.538 L 99.624 387.196 L 119.97 398.854 L 140.316 410.512 L 144.661 402.917 L 149.006 395.322 L 153.351 387.727 L 157.696 380.132 L 137.354 368.477 L 117.012 356.822 L 96.671 345.167 L 76.33 333.512 C 76.256 333.507 76.22 333.526 76.214 333.561 C 76.208 333.597 76.232 333.65 76.278 333.715 C 76.324 333.78 76.391 333.858 76.472 333.943 C 76.553 334.028 76.648 334.119 76.748 334.212 C 76.848 334.305 76.953 334.4 77.056 334.49 C 77.158 334.581 77.258 334.668 77.346 334.746 C 77.435 334.823 77.512 334.892 77.57 334.946 C 77.628 335 77.667 335.04 77.679 335.06 C 77.692 335.081 77.708 335.137 77.727 335.218 C 77.746 335.299 77.768 335.404 77.793 335.524 C 77.818 335.644 77.845 335.778 77.874 335.918 C 77.903 336.057 77.934 336.201 77.967 336.34 C 77.999 336.479 78.032 336.613 78.067 336.732 C 78.101 336.851 78.137 336.955 78.172 337.034 C 78.207 337.113 78.243 337.167 78.278 337.186 C 78.313 337.205 78.347 337.19 78.381 337.13 L 77.515 312.63 L 77.515 288.63 L 77.515 264.63 L 77.515 240.63 L 77.515 216.63 L 77.515 192.63 L 77.515 168.63 L 78.381 145.13 C 78.347 145.069 78.312 145.054 78.277 145.073 C 78.242 145.092 78.207 145.146 78.172 145.225 C 78.136 145.304 78.101 145.408 78.067 145.527 C 78.033 145.646 77.999 145.78 77.967 145.92 C 77.935 146.059 77.904 146.203 77.875 146.343 C 77.846 146.482 77.818 146.617 77.793 146.737 C 77.768 146.857 77.746 146.962 77.727 147.043 C 77.708 147.123 77.692 147.179 77.679 147.2 C 77.667 147.22 77.628 147.26 77.57 147.315 C 77.511 147.37 77.433 147.439 77.344 147.517 C 77.254 147.595 77.154 147.682 77.051 147.773 C 76.948 147.864 76.841 147.959 76.74 148.053 C 76.639 148.147 76.544 148.239 76.462 148.324 C 76.38 148.409 76.311 148.487 76.264 148.552 C 76.217 148.618 76.193 148.672 76.198 148.707 C 76.203 148.743 76.239 148.761 76.313 148.757 L 95.672 136.597 L 115.897 124.937 L 136.122 113.277 L 156.347 101.617 L 176.573 89.957 L 196.799 78.297 L 217.025 66.637 L 236.751 55.843 C 236.794 55.782 236.797 55.742 236.77 55.719 C 236.742 55.696 236.684 55.691 236.604 55.698 C 236.524 55.705 236.422 55.726 236.308 55.754 C 236.194 55.783 236.067 55.82 235.936 55.861 C 235.805 55.902 235.671 55.946 235.542 55.99 C 235.413 56.034 235.289 56.078 235.179 56.116 C 235.069 56.154 234.973 56.188 234.901 56.211 C 234.828 56.235 234.779 56.249 234.761 56.249 C 234.743 56.249 234.695 56.235 234.624 56.213 C 234.553 56.19 234.46 56.159 234.352 56.122 C 234.245 56.085 234.124 56.044 233.998 56.002 C 233.872 55.96 233.742 55.917 233.615 55.878 C 233.488 55.84 233.365 55.805 233.254 55.778 C 233.143 55.751 233.045 55.733 232.967 55.727 C 232.889 55.721 232.833 55.728 232.807 55.751 C 232.781 55.775 232.785 55.815 232.828 55.877 C 232.828 55.877 236.698 56.946 241.079 59.458 C 245.46 61.969 251.719 65.557 259.229 69.861 C 266.739 74.166 275.5 79.187 284.887 84.566 C 294.274 89.945 321.435 105.531 321.435 105.531 Z" style="fill: rgb(248, 179, 30); stroke-width: 1px;" transform="matrix(0.5, 0.86602497, -0.86602497, 0.5, 326.82562216, -83.82669038)"/>
</svg>